{
	"asset":{
		"generator":"Khronos glTF Blender I/O v4.0.43",
		"version":"2.0"
	},
	"extensionsUsed":[
		"KHR_materials_specular",
		"KHR_materials_ior"
	],
	"scene":0,
	"scenes":[
		{
			"name":"Scene",
			"nodes":[
				0,
				1
			]
		}
	],
	"nodes":[
		{
			"mesh":0,
			"name":"focusknob",
			"rotation":[
				0.5,
				0.5,
				-0.5,
				0.5
			],
			"translation":[
				0,
				0.10636024177074432,
				-0.05045735090970993
			]
		},
		{
			"mesh":1,
			"name":"focusknob 2",
			"rotation":[
				0,
				0,
				-0.7071068286895752,
				0.7071068286895752
			],
			"translation":[
				0,
				0.05335340276360512,
				-0.028332656249403954
			]
		}
	],
	"materials":[
		{
			"doubleSided":true,
			"name":"black plastic",
			"pbrMetallicRoughness":{
				"baseColorFactor":[
					0.0056046294048428535,
					0.0056046294048428535,
					0.0056046294048428535,
					1
				],
				"metallicFactor":0,
				"roughnessFactor":0.6166667342185974
			}
		},
		{
			"doubleSided":true,
			"extensions":{
				"KHR_materials_specular":{
					"specularFactor":0.800000011920929
				},
				"KHR_materials_ior":{
					"ior":1.4500000476837158
				}
			},
			"name":"metal.002",
			"pbrMetallicRoughness":{
				"baseColorFactor":[
					0.5925782918930054,
					0.5925782918930054,
					0.5925782918930054,
					1
				],
				"roughnessFactor":0.4833333194255829
			}
		}
	],
	"meshes":[
		{
			"name":"Cylinder.001",
			"primitives":[
				{
					"attributes":{
						"POSITION":0,
						"NORMAL":1,
						"TEXCOORD_0":2
					},
					"indices":3,
					"material":0
				},
				{
					"attributes":{
						"POSITION":4,
						"NORMAL":5,
						"TEXCOORD_0":6
					},
					"indices":7,
					"material":1
				}
			]
		},
		{
			"name":"Cylinder.009",
			"primitives":[
				{
					"attributes":{
						"POSITION":8,
						"NORMAL":9,
						"TEXCOORD_0":10
					},
					"indices":11,
					"material":1
				},
				{
					"attributes":{
						"POSITION":12,
						"NORMAL":13,
						"TEXCOORD_0":14
					},
					"indices":15,
					"material":0
				}
			]
		}
	],
	"accessors":[
		{
			"bufferView":0,
			"componentType":5126,
			"count":792,
			"max":[
				0.018264196813106537,
				-0.03550219535827637,
				0.01826419308781624
			],
			"min":[
				-0.01826419308781624,
				-0.04698709025979042,
				-0.018264194950461388
			],
			"type":"VEC3"
		},
		{
			"bufferView":1,
			"componentType":5126,
			"count":792,
			"type":"VEC3"
		},
		{
			"bufferView":2,
			"componentType":5126,
			"count":792,
			"type":"VEC2"
		},
		{
			"bufferView":3,
			"componentType":5123,
			"count":3264,
			"type":"SCALAR"
		},
		{
			"bufferView":4,
			"componentType":5126,
			"count":493,
			"max":[
				0.008222192525863647,
				-0.01914535090327263,
				0.008222190663218498
			],
			"min":[
				-0.008222190663218498,
				-0.04789484292268753,
				-0.008222192525863647
			],
			"type":"VEC3"
		},
		{
			"bufferView":5,
			"componentType":5126,
			"count":493,
			"type":"VEC3"
		},
		{
			"bufferView":6,
			"componentType":5126,
			"count":493,
			"type":"VEC2"
		},
		{
			"bufferView":7,
			"componentType":5123,
			"count":1626,
			"type":"SCALAR"
		},
		{
			"bufferView":8,
			"componentType":5126,
			"count":274,
			"max":[
				0.008038266561925411,
				-0.019529348239302635,
				0.008038267493247986
			],
			"min":[
				-0.008038266561925411,
				-0.05540139228105545,
				-0.008038266561925411
			],
			"type":"VEC3"
		},
		{
			"bufferView":9,
			"componentType":5126,
			"count":274,
			"type":"VEC3"
		},
		{
			"bufferView":10,
			"componentType":5126,
			"count":274,
			"type":"VEC2"
		},
		{
			"bufferView":11,
			"componentType":5123,
			"count":786,
			"type":"SCALAR"
		},
		{
			"bufferView":12,
			"componentType":5126,
			"count":222,
			"max":[
				0.008038267493247986,
				-0.03027286008000374,
				0.008038267493247986
			],
			"min":[
				-0.008038266561925411,
				-0.05540139228105545,
				-0.008038266561925411
			],
			"type":"VEC3"
		},
		{
			"bufferView":13,
			"componentType":5126,
			"count":222,
			"type":"VEC3"
		},
		{
			"bufferView":14,
			"componentType":5126,
			"count":222,
			"type":"VEC2"
		},
		{
			"bufferView":15,
			"componentType":5123,
			"count":648,
			"type":"SCALAR"
		}
	],
	"bufferViews":[
		{
			"buffer":0,
			"byteLength":9504,
			"byteOffset":0,
			"target":34962
		},
		{
			"buffer":0,
			"byteLength":9504,
			"byteOffset":9504,
			"target":34962
		},
		{
			"buffer":0,
			"byteLength":6336,
			"byteOffset":19008,
			"target":34962
		},
		{
			"buffer":0,
			"byteLength":6528,
			"byteOffset":25344,
			"target":34963
		},
		{
			"buffer":0,
			"byteLength":5916,
			"byteOffset":31872,
			"target":34962
		},
		{
			"buffer":0,
			"byteLength":5916,
			"byteOffset":37788,
			"target":34962
		},
		{
			"buffer":0,
			"byteLength":3944,
			"byteOffset":43704,
			"target":34962
		},
		{
			"buffer":0,
			"byteLength":3252,
			"byteOffset":47648,
			"target":34963
		},
		{
			"buffer":0,
			"byteLength":3288,
			"byteOffset":50900,
			"target":34962
		},
		{
			"buffer":0,
			"byteLength":3288,
			"byteOffset":54188,
			"target":34962
		},
		{
			"buffer":0,
			"byteLength":2192,
			"byteOffset":57476,
			"target":34962
		},
		{
			"buffer":0,
			"byteLength":1572,
			"byteOffset":59668,
			"target":34963
		},
		{
			"buffer":0,
			"byteLength":2664,
			"byteOffset":61240,
			"target":34962
		},
		{
			"buffer":0,
			"byteLength":2664,
			"byteOffset":63904,
			"target":34962
		},
		{
			"buffer":0,
			"byteLength":1776,
			"byteOffset":66568,
			"target":34962
		},
		{
			"buffer":0,
			"byteLength":1296,
			"byteOffset":68344,
			"target":34963
		}
	],
	"buffers":[
		{
			"byteLength":69640,
			"uri":"focusknob.bin"
		}
	]
}
