{
	"asset":{
		"generator":"Khronos glTF Blender I/O v4.0.43",
		"version":"2.0"
	},
	"scene":0,
	"scenes":[
		{
			"name":"Scene",
			"nodes":[
				0,
				1
			]
		}
	],
	"nodes":[
		{
			"mesh":0,
			"name":"tray",
			"translation":[
				0,
				0.14570419490337372,
				0.027300667017698288
			]
		},
		{
			"mesh":1,
			"name":"tray2",
			"translation":[
				0,
				0.13393369317054749,
				0.022499267011880875
			]
		}
	],
	"materials":[
		{
			"doubleSided":true,
			"name":"black plastic",
			"pbrMetallicRoughness":{
				"baseColorFactor":[
					0.0056046294048428535,
					0.0056046294048428535,
					0.0056046294048428535,
					1
				],
				"metallicFactor":0,
				"roughnessFactor":0.6166667342185974
			}
		}
	],
	"meshes":[
		{
			"name":"Cube.003",
			"primitives":[
				{
					"attributes":{
						"POSITION":0,
						"NORMAL":1,
						"TEXCOORD_0":2
					},
					"indices":3,
					"material":0
				}
			]
		},
		{
			"name":"Cube.004",
			"primitives":[
				{
					"attributes":{
						"POSITION":4,
						"NORMAL":5,
						"TEXCOORD_0":6
					},
					"indices":7,
					"material":0
				}
			]
		}
	],
	"accessors":[
		{
			"bufferView":0,
			"componentType":5126,
			"count":224,
			"max":[
				0,
				0.005020428448915482,
				0.0573766827583313
			],
			"min":[
				-0.06268354505300522,
				-0.01103646494448185,
				-0.057466354221105576
			],
			"type":"VEC3"
		},
		{
			"bufferView":1,
			"componentType":5126,
			"count":224,
			"type":"VEC3"
		},
		{
			"bufferView":2,
			"componentType":5126,
			"count":224,
			"type":"VEC2"
		},
		{
			"bufferView":3,
			"componentType":5123,
			"count":681,
			"type":"SCALAR"
		},
		{
			"bufferView":4,
			"componentType":5126,
			"count":154,
			"max":[
				0.03891134262084961,
				0.0066537256352603436,
				0.05490922927856445
			],
			"min":[
				-0.03891134262084961,
				0.0005094497464597225,
				-0.05490922927856445
			],
			"type":"VEC3"
		},
		{
			"bufferView":5,
			"componentType":5126,
			"count":154,
			"type":"VEC3"
		},
		{
			"bufferView":6,
			"componentType":5126,
			"count":154,
			"type":"VEC2"
		},
		{
			"bufferView":7,
			"componentType":5123,
			"count":432,
			"type":"SCALAR"
		}
	],
	"bufferViews":[
		{
			"buffer":0,
			"byteLength":2688,
			"byteOffset":0,
			"target":34962
		},
		{
			"buffer":0,
			"byteLength":2688,
			"byteOffset":2688,
			"target":34962
		},
		{
			"buffer":0,
			"byteLength":1792,
			"byteOffset":5376,
			"target":34962
		},
		{
			"buffer":0,
			"byteLength":1362,
			"byteOffset":7168,
			"target":34963
		},
		{
			"buffer":0,
			"byteLength":1848,
			"byteOffset":8532,
			"target":34962
		},
		{
			"buffer":0,
			"byteLength":1848,
			"byteOffset":10380,
			"target":34962
		},
		{
			"buffer":0,
			"byteLength":1232,
			"byteOffset":12228,
			"target":34962
		},
		{
			"buffer":0,
			"byteLength":864,
			"byteOffset":13460,
			"target":34963
		}
	],
	"buffers":[
		{
			"byteLength":14324,
			"uri":"tray.bin"
		}
	]
}
