{
	"asset":{
		"generator":"Khronos glTF Blender I/O v4.0.43",
		"version":"2.0"
	},
	"extensionsUsed":[
		"KHR_materials_specular",
		"KHR_materials_ior"
	],
	"scene":0,
	"scenes":[
		{
			"name":"Scene",
			"nodes":[
				0
			]
		}
	],
	"nodes":[
		{
			"mesh":0,
			"name":"40x",
			"rotation":[
				-0.15030543506145477,
				0,
				0,
				0.9886397123336792
			],
			"translation":[
				0,
				0.19805973768234253,
				0.055223770439624786
			]
		}
	],
	"materials":[
		{
			"doubleSided":true,
			"extensions":{
				"KHR_materials_specular":{
					"specularFactor":0.800000011920929
				},
				"KHR_materials_ior":{
					"ior":1.4500000476837158
				}
			},
			"name":"metal.001",
			"pbrMetallicRoughness":{
				"roughnessFactor":0.36060604453086853
			}
		},
		{
			"doubleSided":true,
			"name":"Material.003",
			"pbrMetallicRoughness":{
				"baseColorFactor":[
					0,
					0.021236764267086983,
					0.8000000715255737,
					1
				],
				"metallicFactor":0,
				"roughnessFactor":0.2083333432674408
			}
		}
	],
	"meshes":[
		{
			"name":"Cylinder.020",
			"primitives":[
				{
					"attributes":{
						"POSITION":0,
						"NORMAL":1,
						"TEXCOORD_0":2,
						"TEXCOORD_1":3
					},
					"indices":4,
					"material":0
				},
				{
					"attributes":{
						"POSITION":5,
						"NORMAL":6,
						"TEXCOORD_0":7,
						"TEXCOORD_1":8
					},
					"indices":9,
					"material":1
				}
			]
		}
	],
	"accessors":[
		{
			"bufferView":0,
			"componentType":5126,
			"count":2345,
			"max":[
				0.010980785824358463,
				0.020500000566244125,
				0.010980785824358463
			],
			"min":[
				-0.010980785824358463,
				-0.02310897782444954,
				-0.010980785824358463
			],
			"type":"VEC3"
		},
		{
			"bufferView":1,
			"componentType":5126,
			"count":2345,
			"type":"VEC3"
		},
		{
			"bufferView":2,
			"componentType":5126,
			"count":2345,
			"type":"VEC2"
		},
		{
			"bufferView":3,
			"componentType":5126,
			"count":2345,
			"type":"VEC2"
		},
		{
			"bufferView":4,
			"componentType":5123,
			"count":7284,
			"type":"SCALAR"
		},
		{
			"bufferView":5,
			"componentType":5126,
			"count":130,
			"max":[
				0.009944374673068523,
				0.0023571790661662817,
				0.009944374673068523
			],
			"min":[
				-0.009944374673068523,
				0.0013936175964772701,
				-0.009944374673068523
			],
			"type":"VEC3"
		},
		{
			"bufferView":6,
			"componentType":5126,
			"count":130,
			"type":"VEC3"
		},
		{
			"bufferView":7,
			"componentType":5126,
			"count":130,
			"type":"VEC2"
		},
		{
			"bufferView":8,
			"componentType":5126,
			"count":130,
			"type":"VEC2"
		},
		{
			"bufferView":9,
			"componentType":5123,
			"count":384,
			"type":"SCALAR"
		}
	],
	"bufferViews":[
		{
			"buffer":0,
			"byteLength":28140,
			"byteOffset":0,
			"target":34962
		},
		{
			"buffer":0,
			"byteLength":28140,
			"byteOffset":28140,
			"target":34962
		},
		{
			"buffer":0,
			"byteLength":18760,
			"byteOffset":56280,
			"target":34962
		},
		{
			"buffer":0,
			"byteLength":18760,
			"byteOffset":75040,
			"target":34962
		},
		{
			"buffer":0,
			"byteLength":14568,
			"byteOffset":93800,
			"target":34963
		},
		{
			"buffer":0,
			"byteLength":1560,
			"byteOffset":108368,
			"target":34962
		},
		{
			"buffer":0,
			"byteLength":1560,
			"byteOffset":109928,
			"target":34962
		},
		{
			"buffer":0,
			"byteLength":1040,
			"byteOffset":111488,
			"target":34962
		},
		{
			"buffer":0,
			"byteLength":1040,
			"byteOffset":112528,
			"target":34962
		},
		{
			"buffer":0,
			"byteLength":768,
			"byteOffset":113568,
			"target":34963
		}
	],
	"buffers":[
		{
			"byteLength":114336,
			"uri":"40x.bin"
		}
	]
}
