{
	"asset":{
		"generator":"Khronos glTF Blender I/O v4.0.43",
		"version":"2.0"
	},
	"extensionsUsed":[
		"KHR_materials_specular",
		"KHR_materials_ior"
	],
	"scene":0,
	"scenes":[
		{
			"name":"Scene",
			"nodes":[
				0
			]
		}
	],
	"nodes":[
		{
			"mesh":0,
			"name":"10x",
			"rotation":[
				-0.059936270117759705,
				0.010082121938467026,
				-0.09488498419523239,
				0.99363112449646
			],
			"translation":[
				-0.0196746364235878,
				0.1967257559299469,
				0.03376791626214981
			]
		}
	],
	"materials":[
		{
			"doubleSided":true,
			"extensions":{
				"KHR_materials_specular":{
					"specularFactor":0.800000011920929
				},
				"KHR_materials_ior":{
					"ior":1.4500000476837158
				}
			},
			"name":"metal",
			"pbrMetallicRoughness":{
				"roughnessFactor":0.4833333194255829
			}
		},
		{
			"doubleSided":true,
			"name":"Material.004",
			"pbrMetallicRoughness":{
				"baseColorFactor":[
					0.8000000715255737,
					0.23028378188610077,
					0,
					1
				],
				"metallicFactor":0,
				"roughnessFactor":0.2083333432674408
			}
		},
		{
			"doubleSided":true,
			"name":"glass",
			"pbrMetallicRoughness":{
				"baseColorFactor":[
					0.38437479734420776,
					0.3731274902820587,
					0.3731274902820587,
					1
				],
				"metallicFactor":0,
				"roughnessFactor":0
			}
		}
	],
	"meshes":[
		{
			"name":"Cylinder.021",
			"primitives":[
				{
					"attributes":{
						"POSITION":0,
						"NORMAL":1,
						"TEXCOORD_0":2
					},
					"indices":3,
					"material":0
				},
				{
					"attributes":{
						"POSITION":4,
						"NORMAL":5,
						"TEXCOORD_0":6
					},
					"indices":7,
					"material":1
				},
				{
					"attributes":{
						"POSITION":8,
						"NORMAL":9,
						"TEXCOORD_0":10
					},
					"indices":11,
					"material":2
				}
			]
		}
	],
	"accessors":[
		{
			"bufferView":0,
			"componentType":5126,
			"count":2113,
			"max":[
				0.010291293263435364,
				0.01850000023841858,
				0.010291293263435364
			],
			"min":[
				-0.010291293263435364,
				-0.020071683451533318,
				-0.010291293263435364
			],
			"type":"VEC3"
		},
		{
			"bufferView":1,
			"componentType":5126,
			"count":2113,
			"type":"VEC3"
		},
		{
			"bufferView":2,
			"componentType":5126,
			"count":2113,
			"type":"VEC2"
		},
		{
			"bufferView":3,
			"componentType":5123,
			"count":6330,
			"type":"SCALAR"
		},
		{
			"bufferView":4,
			"componentType":5126,
			"count":132,
			"max":[
				0.009527250193059444,
				0.003973281942307949,
				0.009527250193059444
			],
			"min":[
				-0.009527250193059444,
				0.003006430109962821,
				-0.009527250193059444
			],
			"type":"VEC3"
		},
		{
			"bufferView":5,
			"componentType":5126,
			"count":132,
			"type":"VEC3"
		},
		{
			"bufferView":6,
			"componentType":5126,
			"count":132,
			"type":"VEC2"
		},
		{
			"bufferView":7,
			"componentType":5123,
			"count":384,
			"type":"SCALAR"
		},
		{
			"bufferView":8,
			"componentType":5126,
			"count":64,
			"max":[
				0.003487830050289631,
				-0.018871862441301346,
				0.0034878288861364126
			],
			"min":[
				-0.003487827954813838,
				-0.018871866166591644,
				-0.0034878288861364126
			],
			"type":"VEC3"
		},
		{
			"bufferView":9,
			"componentType":5126,
			"count":64,
			"type":"VEC3"
		},
		{
			"bufferView":10,
			"componentType":5126,
			"count":64,
			"type":"VEC2"
		},
		{
			"bufferView":11,
			"componentType":5123,
			"count":186,
			"type":"SCALAR"
		}
	],
	"bufferViews":[
		{
			"buffer":0,
			"byteLength":25356,
			"byteOffset":0,
			"target":34962
		},
		{
			"buffer":0,
			"byteLength":25356,
			"byteOffset":25356,
			"target":34962
		},
		{
			"buffer":0,
			"byteLength":16904,
			"byteOffset":50712,
			"target":34962
		},
		{
			"buffer":0,
			"byteLength":12660,
			"byteOffset":67616,
			"target":34963
		},
		{
			"buffer":0,
			"byteLength":1584,
			"byteOffset":80276,
			"target":34962
		},
		{
			"buffer":0,
			"byteLength":1584,
			"byteOffset":81860,
			"target":34962
		},
		{
			"buffer":0,
			"byteLength":1056,
			"byteOffset":83444,
			"target":34962
		},
		{
			"buffer":0,
			"byteLength":768,
			"byteOffset":84500,
			"target":34963
		},
		{
			"buffer":0,
			"byteLength":768,
			"byteOffset":85268,
			"target":34962
		},
		{
			"buffer":0,
			"byteLength":768,
			"byteOffset":86036,
			"target":34962
		},
		{
			"buffer":0,
			"byteLength":512,
			"byteOffset":86804,
			"target":34962
		},
		{
			"buffer":0,
			"byteLength":372,
			"byteOffset":87316,
			"target":34963
		}
	],
	"buffers":[
		{
			"byteLength":87688,
			"uri":"8x.bin"
		}
	]
}
