{
	"asset":{
		"generator":"Khronos glTF Blender I/O v4.0.43",
		"version":"2.0"
	},
	"extensionsUsed":[
		"KHR_materials_specular",
		"KHR_materials_ior"
	],
	"scene":0,
	"scenes":[
		{
			"name":"Scene",
			"nodes":[
				0
			]
		}
	],
	"nodes":[
		{
			"mesh":0,
			"name":"100x",
			"rotation":[
				-0.06473423540592194,
				0.007583486381918192,
				0.08920599520206451,
				0.9938784837722778
			],
			"translation":[
				0.01931070163846016,
				0.19490566849708557,
				0.03537203371524811
			]
		}
	],
	"materials":[
		{
			"doubleSided":true,
			"extensions":{
				"KHR_materials_specular":{
					"specularFactor":0.800000011920929
				},
				"KHR_materials_ior":{
					"ior":1.4500000476837158
				}
			},
			"name":"metal",
			"pbrMetallicRoughness":{
				"roughnessFactor":0.4833333194255829
			}
		},
		{
			"doubleSided":true,
			"name":"Material.005",
			"pbrMetallicRoughness":{
				"metallicFactor":0,
				"roughnessFactor":0.2083333432674408
			}
		}
	],
	"meshes":[
		{
			"name":"Cylinder.022",
			"primitives":[
				{
					"attributes":{
						"POSITION":0,
						"NORMAL":1,
						"TEXCOORD_0":2
					},
					"indices":3,
					"material":0
				},
				{
					"attributes":{
						"POSITION":4,
						"NORMAL":5,
						"TEXCOORD_0":6
					},
					"indices":7,
					"material":1
				}
			]
		}
	],
	"accessors":[
		{
			"bufferView":0,
			"componentType":5126,
			"count":2540,
			"max":[
				0.010769831016659737,
				0.020500000566244125,
				0.010769831016659737
			],
			"min":[
				-0.010769831016659737,
				-0.02387024648487568,
				-0.010769831016659737
			],
			"type":"VEC3"
		},
		{
			"bufferView":1,
			"componentType":5126,
			"count":2540,
			"type":"VEC3"
		},
		{
			"bufferView":2,
			"componentType":5126,
			"count":2540,
			"type":"VEC2"
		},
		{
			"bufferView":3,
			"componentType":5123,
			"count":9204,
			"type":"SCALAR"
		},
		{
			"bufferView":4,
			"componentType":5126,
			"count":130,
			"max":[
				0.009901701472699642,
				0.0033239289186894894,
				0.009901701472699642
			],
			"min":[
				-0.009901701472699642,
				0.0023599043488502502,
				-0.009901701472699642
			],
			"type":"VEC3"
		},
		{
			"bufferView":5,
			"componentType":5126,
			"count":130,
			"type":"VEC3"
		},
		{
			"bufferView":6,
			"componentType":5126,
			"count":130,
			"type":"VEC2"
		},
		{
			"bufferView":7,
			"componentType":5123,
			"count":384,
			"type":"SCALAR"
		}
	],
	"bufferViews":[
		{
			"buffer":0,
			"byteLength":30480,
			"byteOffset":0,
			"target":34962
		},
		{
			"buffer":0,
			"byteLength":30480,
			"byteOffset":30480,
			"target":34962
		},
		{
			"buffer":0,
			"byteLength":20320,
			"byteOffset":60960,
			"target":34962
		},
		{
			"buffer":0,
			"byteLength":18408,
			"byteOffset":81280,
			"target":34963
		},
		{
			"buffer":0,
			"byteLength":1560,
			"byteOffset":99688,
			"target":34962
		},
		{
			"buffer":0,
			"byteLength":1560,
			"byteOffset":101248,
			"target":34962
		},
		{
			"buffer":0,
			"byteLength":1040,
			"byteOffset":102808,
			"target":34962
		},
		{
			"buffer":0,
			"byteLength":768,
			"byteOffset":103848,
			"target":34963
		}
	],
	"buffers":[
		{
			"byteLength":104616,
			"uri":"100x.bin"
		}
	]
}
