{
	"asset":{
		"generator":"Khronos glTF Blender I/O v4.0.43",
		"version":"2.0"
	},
	"extensionsUsed":[
		"KHR_materials_specular",
		"KHR_materials_ior"
	],
	"scene":0,
	"scenes":[
		{
			"name":"Scene",
			"nodes":[
				0
			]
		}
	],
	"nodes":[
		{
			"mesh":0,
			"name":"lamp control knob",
			"translation":[
				0,
				0.043313752859830856,
				0.06181569769978523
			]
		}
	],
	"materials":[
		{
			"doubleSided":true,
			"name":"black plastic.002",
			"pbrMetallicRoughness":{
				"baseColorFactor":[
					0.0056046294048428535,
					0.0056046294048428535,
					0.0056046294048428535,
					1
				],
				"metallicFactor":0,
				"roughnessFactor":0.6166667342185974
			}
		},
		{
			"doubleSided":true,
			"extensions":{
				"KHR_materials_specular":{
					"specularFactor":0.800000011920929
				},
				"KHR_materials_ior":{
					"ior":1.4500000476837158
				}
			},
			"name":"metal.002",
			"pbrMetallicRoughness":{
				"baseColorFactor":[
					0.5925782918930054,
					0.5925782918930054,
					0.5925782918930054,
					1
				],
				"roughnessFactor":0.4833333194255829
			}
		}
	],
	"meshes":[
		{
			"name":"Cylinder.003",
			"primitives":[
				{
					"attributes":{
						"POSITION":0,
						"NORMAL":1,
						"TEXCOORD_0":2,
						"TEXCOORD_1":3
					},
					"indices":4,
					"material":0
				},
				{
					"attributes":{
						"POSITION":5,
						"NORMAL":6,
						"TEXCOORD_0":7,
						"TEXCOORD_1":8
					},
					"indices":9,
					"material":1
				}
			]
		}
	],
	"accessors":[
		{
			"bufferView":0,
			"componentType":5126,
			"count":98,
			"max":[
				0.010000000707805157,
				0.009000000543892384,
				0.010000000707805157
			],
			"min":[
				-0.010000000707805157,
				-0.009000000543892384,
				-0.010000000707805157
			],
			"type":"VEC3"
		},
		{
			"bufferView":1,
			"componentType":5126,
			"count":98,
			"type":"VEC3"
		},
		{
			"bufferView":2,
			"componentType":5126,
			"count":98,
			"type":"VEC2"
		},
		{
			"bufferView":3,
			"componentType":5126,
			"count":98,
			"type":"VEC2"
		},
		{
			"bufferView":4,
			"componentType":5123,
			"count":282,
			"type":"SCALAR"
		},
		{
			"bufferView":5,
			"componentType":5126,
			"count":132,
			"max":[
				0.010000000707805157,
				0.009000000543892384,
				0.010000000707805157
			],
			"min":[
				-0.010000000707805157,
				0.008553490042686462,
				-0.010000000707805157
			],
			"type":"VEC3"
		},
		{
			"bufferView":6,
			"componentType":5126,
			"count":132,
			"type":"VEC3"
		},
		{
			"bufferView":7,
			"componentType":5126,
			"count":132,
			"type":"VEC2"
		},
		{
			"bufferView":8,
			"componentType":5126,
			"count":132,
			"type":"VEC2"
		},
		{
			"bufferView":9,
			"componentType":5123,
			"count":384,
			"type":"SCALAR"
		}
	],
	"bufferViews":[
		{
			"buffer":0,
			"byteLength":1176,
			"byteOffset":0,
			"target":34962
		},
		{
			"buffer":0,
			"byteLength":1176,
			"byteOffset":1176,
			"target":34962
		},
		{
			"buffer":0,
			"byteLength":784,
			"byteOffset":2352,
			"target":34962
		},
		{
			"buffer":0,
			"byteLength":784,
			"byteOffset":3136,
			"target":34962
		},
		{
			"buffer":0,
			"byteLength":564,
			"byteOffset":3920,
			"target":34963
		},
		{
			"buffer":0,
			"byteLength":1584,
			"byteOffset":4484,
			"target":34962
		},
		{
			"buffer":0,
			"byteLength":1584,
			"byteOffset":6068,
			"target":34962
		},
		{
			"buffer":0,
			"byteLength":1056,
			"byteOffset":7652,
			"target":34962
		},
		{
			"buffer":0,
			"byteLength":1056,
			"byteOffset":8708,
			"target":34962
		},
		{
			"buffer":0,
			"byteLength":768,
			"byteOffset":9764,
			"target":34963
		}
	],
	"buffers":[
		{
			"byteLength":10532,
			"uri":"knob.bin"
		}
	]
}
