{
	"asset":{
		"generator":"Khronos glTF Blender I/O v4.0.43",
		"version":"2.0"
	},
	"extensionsUsed":[
		"KHR_materials_specular",
		"KHR_materials_ior"
	],
	"scene":0,
	"scenes":[
		{
			"name":"Scene",
			"nodes":[
				0
			]
		}
	],
	"nodes":[
		{
			"mesh":0,
			"name":"4x",
			"translation":[
				0,
				0.1992969810962677,
				0.01805155538022518
			]
		}
	],
	"materials":[
		{
			"doubleSided":true,
			"extensions":{
				"KHR_materials_specular":{
					"specularFactor":0.800000011920929
				},
				"KHR_materials_ior":{
					"ior":1.4500000476837158
				}
			},
			"name":"metal",
			"pbrMetallicRoughness":{
				"roughnessFactor":0.4833333194255829
			}
		},
		{
			"doubleSided":true,
			"name":"Material.002",
			"pbrMetallicRoughness":{
				"baseColorFactor":[
					0.8000000715255737,
					0,
					0.0008169133216142654,
					1
				],
				"metallicFactor":0,
				"roughnessFactor":0.2083333432674408
			}
		},
		{
			"doubleSided":true,
			"name":"glass",
			"pbrMetallicRoughness":{
				"baseColorFactor":[
					0.38437479734420776,
					0.3731274902820587,
					0.3731274902820587,
					1
				],
				"metallicFactor":0,
				"roughnessFactor":0
			}
		}
	],
	"meshes":[
		{
			"name":"Cylinder.017",
			"primitives":[
				{
					"attributes":{
						"POSITION":0,
						"NORMAL":1,
						"TEXCOORD_0":2
					},
					"indices":3,
					"material":0
				},
				{
					"attributes":{
						"POSITION":4,
						"NORMAL":5,
						"TEXCOORD_0":6
					},
					"indices":7,
					"material":1
				},
				{
					"attributes":{
						"POSITION":8,
						"NORMAL":9,
						"TEXCOORD_0":10
					},
					"indices":11,
					"material":2
				}
			]
		}
	],
	"accessors":[
		{
			"bufferView":0,
			"componentType":5126,
			"count":2375,
			"max":[
				0.009662123396992683,
				0.013000000268220901,
				0.009662123396992683
			],
			"min":[
				-0.009662123396992683,
				-0.013000000268220901,
				-0.009662123396992683
			],
			"type":"VEC3"
		},
		{
			"bufferView":1,
			"componentType":5126,
			"count":2375,
			"type":"VEC3"
		},
		{
			"bufferView":2,
			"componentType":5126,
			"count":2375,
			"type":"VEC2"
		},
		{
			"bufferView":3,
			"componentType":5123,
			"count":7098,
			"type":"SCALAR"
		},
		{
			"bufferView":4,
			"componentType":5126,
			"count":154,
			"max":[
				0.009351932443678379,
				0.004474494606256485,
				0.009351932443678379
			],
			"min":[
				-0.009351932443678379,
				0.003508908674120903,
				-0.009351932443678379
			],
			"type":"VEC3"
		},
		{
			"bufferView":5,
			"componentType":5126,
			"count":154,
			"type":"VEC3"
		},
		{
			"bufferView":6,
			"componentType":5126,
			"count":154,
			"type":"VEC2"
		},
		{
			"bufferView":7,
			"componentType":5123,
			"count":384,
			"type":"SCALAR"
		},
		{
			"bufferView":8,
			"componentType":5126,
			"count":64,
			"max":[
				0.003079392481595278,
				-0.009680964052677155,
				0.003079392481595278
			],
			"min":[
				-0.0030793906189501286,
				-0.009680966846644878,
				-0.003079391550272703
			],
			"type":"VEC3"
		},
		{
			"bufferView":9,
			"componentType":5126,
			"count":64,
			"type":"VEC3"
		},
		{
			"bufferView":10,
			"componentType":5126,
			"count":64,
			"type":"VEC2"
		},
		{
			"bufferView":11,
			"componentType":5123,
			"count":186,
			"type":"SCALAR"
		}
	],
	"bufferViews":[
		{
			"buffer":0,
			"byteLength":28500,
			"byteOffset":0,
			"target":34962
		},
		{
			"buffer":0,
			"byteLength":28500,
			"byteOffset":28500,
			"target":34962
		},
		{
			"buffer":0,
			"byteLength":19000,
			"byteOffset":57000,
			"target":34962
		},
		{
			"buffer":0,
			"byteLength":14196,
			"byteOffset":76000,
			"target":34963
		},
		{
			"buffer":0,
			"byteLength":1848,
			"byteOffset":90196,
			"target":34962
		},
		{
			"buffer":0,
			"byteLength":1848,
			"byteOffset":92044,
			"target":34962
		},
		{
			"buffer":0,
			"byteLength":1232,
			"byteOffset":93892,
			"target":34962
		},
		{
			"buffer":0,
			"byteLength":768,
			"byteOffset":95124,
			"target":34963
		},
		{
			"buffer":0,
			"byteLength":768,
			"byteOffset":95892,
			"target":34962
		},
		{
			"buffer":0,
			"byteLength":768,
			"byteOffset":96660,
			"target":34962
		},
		{
			"buffer":0,
			"byteLength":512,
			"byteOffset":97428,
			"target":34962
		},
		{
			"buffer":0,
			"byteLength":372,
			"byteOffset":97940,
			"target":34963
		}
	],
	"buffers":[
		{
			"byteLength":98312,
			"uri":"4x.bin"
		}
	]
}
