{
	"asset":{
		"generator":"Khronos glTF Blender I/O v4.0.43",
		"version":"2.0"
	},
	"extensionsUsed":[
		"KHR_materials_specular",
		"KHR_materials_ior"
	],
	"scene":0,
	"scenes":[
		{
			"name":"Scene",
			"nodes":[
				0
			]
		}
	],
	"nodes":[
		{
			"mesh":0,
			"name":"condenser",
			"translation":[
				0,
				0.13054977357387543,
				0.01805155538022518
			]
		}
	],
	"materials":[
		{
			"doubleSided":true,
			"name":"black plastic",
			"pbrMetallicRoughness":{
				"baseColorFactor":[
					0.0056046294048428535,
					0.0056046294048428535,
					0.0056046294048428535,
					1
				],
				"metallicFactor":0,
				"roughnessFactor":0.6166667342185974
			}
		},
		{
			"doubleSided":true,
			"name":"glass",
			"pbrMetallicRoughness":{
				"baseColorFactor":[
					0.38437479734420776,
					0.3731274902820587,
					0.3731274902820587,
					1
				],
				"metallicFactor":0,
				"roughnessFactor":0
			}
		},
		{
			"doubleSided":true,
			"extensions":{
				"KHR_materials_specular":{
					"specularFactor":0.800000011920929
				},
				"KHR_materials_ior":{
					"ior":1.4500000476837158
				}
			},
			"name":"metal.002",
			"pbrMetallicRoughness":{
				"baseColorFactor":[
					0.5925782918930054,
					0.5925782918930054,
					0.5925782918930054,
					1
				],
				"roughnessFactor":0.4833333194255829
			}
		}
	],
	"meshes":[
		{
			"name":"Cylinder.014",
			"primitives":[
				{
					"attributes":{
						"POSITION":0,
						"NORMAL":1,
						"TEXCOORD_0":2
					},
					"indices":3,
					"material":0
				},
				{
					"attributes":{
						"POSITION":4,
						"NORMAL":5,
						"TEXCOORD_0":6
					},
					"indices":7,
					"material":1
				},
				{
					"attributes":{
						"POSITION":8,
						"NORMAL":9,
						"TEXCOORD_0":10
					},
					"indices":11,
					"material":2
				}
			]
		}
	],
	"accessors":[
		{
			"bufferView":0,
			"componentType":5126,
			"count":990,
			"max":[
				0.024986490607261658,
				0.02030831202864647,
				0.02498648874461651
			],
			"min":[
				-0.02498648874461651,
				-0.027060750871896744,
				-0.024986490607261658
			],
			"type":"VEC3"
		},
		{
			"bufferView":1,
			"componentType":5126,
			"count":990,
			"type":"VEC3"
		},
		{
			"bufferView":2,
			"componentType":5126,
			"count":990,
			"type":"VEC2"
		},
		{
			"bufferView":3,
			"componentType":5123,
			"count":3072,
			"type":"SCALAR"
		},
		{
			"bufferView":4,
			"componentType":5126,
			"count":32,
			"max":[
				0.007413782179355621,
				0.019863499328494072,
				0.007413781713694334
			],
			"min":[
				-0.007413782179355621,
				0.019863499328494072,
				-0.007413783110678196
			],
			"type":"VEC3"
		},
		{
			"bufferView":5,
			"componentType":5126,
			"count":32,
			"type":"VEC3"
		},
		{
			"bufferView":6,
			"componentType":5126,
			"count":32,
			"type":"VEC2"
		},
		{
			"bufferView":7,
			"componentType":5123,
			"count":90,
			"type":"SCALAR"
		},
		{
			"bufferView":8,
			"componentType":5126,
			"count":231,
			"max":[
				0.026141250506043434,
				-0.011754075065255165,
				0.026141250506043434
			],
			"min":[
				-0.026141250506043434,
				-0.01481391116976738,
				-0.026141252368688583
			],
			"type":"VEC3"
		},
		{
			"bufferView":9,
			"componentType":5126,
			"count":231,
			"type":"VEC3"
		},
		{
			"bufferView":10,
			"componentType":5126,
			"count":231,
			"type":"VEC2"
		},
		{
			"bufferView":11,
			"componentType":5123,
			"count":768,
			"type":"SCALAR"
		}
	],
	"bufferViews":[
		{
			"buffer":0,
			"byteLength":11880,
			"byteOffset":0,
			"target":34962
		},
		{
			"buffer":0,
			"byteLength":11880,
			"byteOffset":11880,
			"target":34962
		},
		{
			"buffer":0,
			"byteLength":7920,
			"byteOffset":23760,
			"target":34962
		},
		{
			"buffer":0,
			"byteLength":6144,
			"byteOffset":31680,
			"target":34963
		},
		{
			"buffer":0,
			"byteLength":384,
			"byteOffset":37824,
			"target":34962
		},
		{
			"buffer":0,
			"byteLength":384,
			"byteOffset":38208,
			"target":34962
		},
		{
			"buffer":0,
			"byteLength":256,
			"byteOffset":38592,
			"target":34962
		},
		{
			"buffer":0,
			"byteLength":180,
			"byteOffset":38848,
			"target":34963
		},
		{
			"buffer":0,
			"byteLength":2772,
			"byteOffset":39028,
			"target":34962
		},
		{
			"buffer":0,
			"byteLength":2772,
			"byteOffset":41800,
			"target":34962
		},
		{
			"buffer":0,
			"byteLength":1848,
			"byteOffset":44572,
			"target":34962
		},
		{
			"buffer":0,
			"byteLength":1536,
			"byteOffset":46420,
			"target":34963
		}
	],
	"buffers":[
		{
			"byteLength":47956,
			"uri":"condenser.bin"
		}
	]
}
