{
	"asset":{
		"generator":"Khronos glTF Blender I/O v4.0.43",
		"version":"2.0"
	},
	"scene":0,
	"scenes":[
		{
			"name":"Scene",
			"nodes":[
				0
			]
		}
	],
	"nodes":[
		{
			"mesh":0,
			"name":"lamp",
			"translation":[
				0,
				0.04055507108569145,
				0.01805155538022518
			]
		}
	],
	"materials":[
		{
			"doubleSided":true,
			"name":"black plastic",
			"pbrMetallicRoughness":{
				"baseColorFactor":[
					0.0056046294048428535,
					0.0056046294048428535,
					0.0056046294048428535,
					1
				],
				"metallicFactor":0,
				"roughnessFactor":0.6166667342185974
			}
		},
		{
			"doubleSided":true,
			"name":"glass",
			"pbrMetallicRoughness":{
				"baseColorFactor":[
					0.38437479734420776,
					0.3731274902820587,
					0.3731274902820587,
					1
				],
				"metallicFactor":0,
				"roughnessFactor":0
			}
		}
	],
	"meshes":[
		{
			"name":"Cylinder.006",
			"primitives":[
				{
					"attributes":{
						"POSITION":0,
						"NORMAL":1,
						"TEXCOORD_0":2
					},
					"indices":3,
					"material":0
				},
				{
					"attributes":{
						"POSITION":4,
						"NORMAL":5,
						"TEXCOORD_0":6
					},
					"indices":7,
					"material":1
				}
			]
		}
	],
	"accessors":[
		{
			"bufferView":0,
			"componentType":5126,
			"count":1942,
			"max":[
				0.019641295075416565,
				0.04631847143173218,
				0.019641295075416565
			],
			"min":[
				-0.019641295075416565,
				-0.006713099777698517,
				-0.019641295075416565
			],
			"type":"VEC3"
		},
		{
			"bufferView":1,
			"componentType":5126,
			"count":1942,
			"type":"VEC3"
		},
		{
			"bufferView":2,
			"componentType":5126,
			"count":1942,
			"type":"VEC2"
		},
		{
			"bufferView":3,
			"componentType":5123,
			"count":6210,
			"type":"SCALAR"
		},
		{
			"bufferView":4,
			"componentType":5126,
			"count":315,
			"max":[
				0.012993721291422844,
				0.04500981792807579,
				0.012993721291422844
			],
			"min":[
				-0.01299372036010027,
				0.04377297684550285,
				-0.012993721291422844
			],
			"type":"VEC3"
		},
		{
			"bufferView":5,
			"componentType":5126,
			"count":315,
			"type":"VEC3"
		},
		{
			"bufferView":6,
			"componentType":5126,
			"count":315,
			"type":"VEC2"
		},
		{
			"bufferView":7,
			"componentType":5123,
			"count":1779,
			"type":"SCALAR"
		}
	],
	"bufferViews":[
		{
			"buffer":0,
			"byteLength":23304,
			"byteOffset":0,
			"target":34962
		},
		{
			"buffer":0,
			"byteLength":23304,
			"byteOffset":23304,
			"target":34962
		},
		{
			"buffer":0,
			"byteLength":15536,
			"byteOffset":46608,
			"target":34962
		},
		{
			"buffer":0,
			"byteLength":12420,
			"byteOffset":62144,
			"target":34963
		},
		{
			"buffer":0,
			"byteLength":3780,
			"byteOffset":74564,
			"target":34962
		},
		{
			"buffer":0,
			"byteLength":3780,
			"byteOffset":78344,
			"target":34962
		},
		{
			"buffer":0,
			"byteLength":2520,
			"byteOffset":82124,
			"target":34962
		},
		{
			"buffer":0,
			"byteLength":3558,
			"byteOffset":84644,
			"target":34963
		}
	],
	"buffers":[
		{
			"byteLength":88204,
			"uri":"lamp.bin"
		}
	]
}
