{
	"asset":{
		"generator":"Khronos glTF Blender I/O v4.0.43",
		"version":"2.0"
	},
	"scene":0,
	"scenes":[
		{
			"name":"Scene",
			"nodes":[
				0,
				1,
				2,
				3,
				4
			]
		}
	],
	"nodes":[
		{
			"mesh":0,
			"name":"base1",
			"rotation":[
				0,
				1,
				0,
				0
			],
			"scale":[
				-0.030000030994415283,
				-0.04999995231628418,
				-0.010000050067901611
			],
			"translation":[
				0,
				0.0166989266872406,
				0
			]
		},
		{
			"mesh":1,
			"name":"head",
			"translation":[
				0,
				0.2624962031841278,
				0.02017362415790558
			]
		},
		{
			"mesh":2,
			"name":"head.001",
			"translation":[
				0,
				0.2624962031841278,
				0.02017362415790558
			]
		},
		{
			"mesh":3,
			"name":"objective-lower",
			"rotation":[
				0.3874780237674713,
				0,
				0,
				0.9218789339065552
			],
			"scale":[
				0.9921490550041199,
				0.9921490550041199,
				0.9921490550041199
			],
			"translation":[
				-0.03165873512625694,
				0.28821122646331787,
				0.09093224257230759
			]
		},
		{
			"mesh":4,
			"name":"objective",
			"rotation":[
				0.3874780237674713,
				0,
				0,
				0.9218789339065552
			],
			"scale":[
				0.9921490550041199,
				0.9921490550041199,
				0.9921490550041199
			],
			"translation":[
				-0.03165873512625694,
				0.27643686532974243,
				0.07891062647104263
			]
		}
	],
	"materials":[
		{
			"doubleSided":true,
			"name":"Material",
			"pbrMetallicRoughness":{
				"baseColorFactor":[
					0.8000000715255737,
					0.7875087857246399,
					0.7507203817367554,
					1
				],
				"metallicFactor":0,
				"roughnessFactor":0.8257575631141663
			}
		},
		{
			"doubleSided":true,
			"name":"black plastic",
			"pbrMetallicRoughness":{
				"baseColorFactor":[
					0.0056046294048428535,
					0.0056046294048428535,
					0.0056046294048428535,
					1
				],
				"metallicFactor":0,
				"roughnessFactor":0.6166667342185974
			}
		},
		{
			"doubleSided":true,
			"name":"black plastic.001",
			"pbrMetallicRoughness":{
				"baseColorFactor":[
					0.0056046294048428535,
					0.0056046294048428535,
					0.0056046294048428535,
					1
				],
				"metallicFactor":0,
				"roughnessFactor":0.6166667342185974
			}
		},
		{
			"doubleSided":true,
			"name":"glass",
			"pbrMetallicRoughness":{
				"baseColorFactor":[
					0.38437479734420776,
					0.3731274902820587,
					0.3731274902820587,
					1
				],
				"metallicFactor":0,
				"roughnessFactor":0
			}
		}
	],
	"meshes":[
		{
			"name":"Cube",
			"primitives":[
				{
					"attributes":{
						"POSITION":0,
						"NORMAL":1,
						"TEXCOORD_0":2,
						"TEXCOORD_1":3
					},
					"indices":4
				}
			]
		},
		{
			"name":"Cube.006",
			"primitives":[
				{
					"attributes":{
						"POSITION":5,
						"NORMAL":6,
						"TEXCOORD_0":7
					},
					"indices":8,
					"material":0
				},
				{
					"attributes":{
						"POSITION":9,
						"NORMAL":10,
						"TEXCOORD_0":11
					},
					"indices":12,
					"material":1
				}
			]
		},
		{
			"name":"Cube.007",
			"primitives":[
				{
					"attributes":{
						"POSITION":13,
						"NORMAL":14,
						"TEXCOORD_0":15
					},
					"indices":16,
					"material":0
				},
				{
					"attributes":{
						"POSITION":17,
						"NORMAL":18,
						"TEXCOORD_0":19
					},
					"indices":20,
					"material":1
				}
			]
		},
		{
			"name":"Cylinder.011",
			"primitives":[
				{
					"attributes":{
						"POSITION":21,
						"NORMAL":22,
						"TEXCOORD_0":23
					},
					"indices":24,
					"material":1
				}
			]
		},
		{
			"name":"Cylinder.012",
			"primitives":[
				{
					"attributes":{
						"POSITION":25,
						"NORMAL":26,
						"TEXCOORD_0":27,
						"TEXCOORD_1":28
					},
					"indices":29,
					"material":2
				},
				{
					"attributes":{
						"POSITION":30,
						"NORMAL":31,
						"TEXCOORD_0":32,
						"TEXCOORD_1":33
					},
					"indices":34,
					"material":3
				}
			]
		}
	],
	"accessors":[
		{
			"bufferView":0,
			"componentType":5126,
			"count":228,
			"max":[
				0.06495427340269089,
				0.01823599264025688,
				0.08862750977277756
			],
			"min":[
				-0.06495427340269089,
				-0.017475713044404984,
				-0.08353542536497116
			],
			"type":"VEC3"
		},
		{
			"bufferView":1,
			"componentType":5126,
			"count":228,
			"type":"VEC3"
		},
		{
			"bufferView":2,
			"componentType":5126,
			"count":228,
			"type":"VEC2"
		},
		{
			"bufferView":3,
			"componentType":5126,
			"count":228,
			"type":"VEC2"
		},
		{
			"bufferView":4,
			"componentType":5123,
			"count":588,
			"type":"SCALAR"
		},
		{
			"bufferView":5,
			"componentType":5126,
			"count":293,
			"max":[
				0.06050678715109825,
				0.031242594122886658,
				0.07809000462293625
			],
			"min":[
				-0.06050678715109825,
				-0.019080348312854767,
				-0.04000000283122063
			],
			"type":"VEC3"
		},
		{
			"bufferView":6,
			"componentType":5126,
			"count":293,
			"type":"VEC3"
		},
		{
			"bufferView":7,
			"componentType":5126,
			"count":293,
			"type":"VEC2"
		},
		{
			"bufferView":8,
			"componentType":5123,
			"count":702,
			"type":"SCALAR"
		},
		{
			"bufferView":9,
			"componentType":5126,
			"count":38,
			"max":[
				0.06050678715109825,
				0.03399662300944328,
				0.08089868724346161
			],
			"min":[
				-0.06050678715109825,
				0.001592201180756092,
				0.049016594886779785
			],
			"type":"VEC3"
		},
		{
			"bufferView":10,
			"componentType":5126,
			"count":38,
			"type":"VEC3"
		},
		{
			"bufferView":11,
			"componentType":5126,
			"count":38,
			"type":"VEC2"
		},
		{
			"bufferView":12,
			"componentType":5123,
			"count":84,
			"type":"SCALAR"
		},
		{
			"bufferView":13,
			"componentType":5126,
			"count":260,
			"max":[
				0.045618750154972076,
				0.03236459940671921,
				0.0771445706486702
			],
			"min":[
				-0.04561873525381088,
				0.010327668860554695,
				0.055451445281505585
			],
			"type":"VEC3"
		},
		{
			"bufferView":14,
			"componentType":5126,
			"count":260,
			"type":"VEC3"
		},
		{
			"bufferView":15,
			"componentType":5126,
			"count":260,
			"type":"VEC2"
		},
		{
			"bufferView":16,
			"componentType":5123,
			"count":768,
			"type":"SCALAR"
		},
		{
			"bufferView":17,
			"componentType":5126,
			"count":464,
			"max":[
				0.06748145073652267,
				0.03873628005385399,
				0.0857255831360817
			],
			"min":[
				-0.06748145073652267,
				-0.004545422270894051,
				0.042774591594934464
			],
			"type":"VEC3"
		},
		{
			"bufferView":18,
			"componentType":5126,
			"count":464,
			"type":"VEC3"
		},
		{
			"bufferView":19,
			"componentType":5126,
			"count":464,
			"type":"VEC2"
		},
		{
			"bufferView":20,
			"componentType":5123,
			"count":1260,
			"type":"SCALAR"
		},
		{
			"bufferView":21,
			"componentType":5126,
			"count":1170,
			"max":[
				0.016587529331445694,
				0.02694862149655819,
				0.016587529331445694
			],
			"min":[
				-0.016587529331445694,
				-0.0050163897685706615,
				-0.016587529331445694
			],
			"type":"VEC3"
		},
		{
			"bufferView":22,
			"componentType":5126,
			"count":1170,
			"type":"VEC3"
		},
		{
			"bufferView":23,
			"componentType":5126,
			"count":1170,
			"type":"VEC2"
		},
		{
			"bufferView":24,
			"componentType":5123,
			"count":3456,
			"type":"SCALAR"
		},
		{
			"bufferView":25,
			"componentType":5126,
			"count":1703,
			"max":[
				0.07505951821804047,
				0.07295966148376465,
				0.011241009458899498
			],
			"min":[
				-0.011241018772125244,
				0.02694862149655819,
				-0.011241008527576923
			],
			"type":"VEC3"
		},
		{
			"bufferView":26,
			"componentType":5126,
			"count":1703,
			"type":"VEC3"
		},
		{
			"bufferView":27,
			"componentType":5126,
			"count":1703,
			"type":"VEC2"
		},
		{
			"bufferView":28,
			"componentType":5126,
			"count":1703,
			"type":"VEC2"
		},
		{
			"bufferView":29,
			"componentType":5123,
			"count":4980,
			"type":"SCALAR"
		},
		{
			"bufferView":30,
			"componentType":5126,
			"count":258,
			"max":[
				0.06938564032316208,
				0.07195331156253815,
				0.005567130167037249
			],
			"min":[
				-0.005567140411585569,
				0.07195329666137695,
				-0.005567129701375961
			],
			"type":"VEC3"
		},
		{
			"bufferView":31,
			"componentType":5126,
			"count":258,
			"type":"VEC3"
		},
		{
			"bufferView":32,
			"componentType":5126,
			"count":258,
			"type":"VEC2"
		},
		{
			"bufferView":33,
			"componentType":5126,
			"count":258,
			"type":"VEC2"
		},
		{
			"bufferView":34,
			"componentType":5123,
			"count":1140,
			"type":"SCALAR"
		}
	],
	"bufferViews":[
		{
			"buffer":0,
			"byteLength":2736,
			"byteOffset":0,
			"target":34962
		},
		{
			"buffer":0,
			"byteLength":2736,
			"byteOffset":2736,
			"target":34962
		},
		{
			"buffer":0,
			"byteLength":1824,
			"byteOffset":5472,
			"target":34962
		},
		{
			"buffer":0,
			"byteLength":1824,
			"byteOffset":7296,
			"target":34962
		},
		{
			"buffer":0,
			"byteLength":1176,
			"byteOffset":9120,
			"target":34963
		},
		{
			"buffer":0,
			"byteLength":3516,
			"byteOffset":10296,
			"target":34962
		},
		{
			"buffer":0,
			"byteLength":3516,
			"byteOffset":13812,
			"target":34962
		},
		{
			"buffer":0,
			"byteLength":2344,
			"byteOffset":17328,
			"target":34962
		},
		{
			"buffer":0,
			"byteLength":1404,
			"byteOffset":19672,
			"target":34963
		},
		{
			"buffer":0,
			"byteLength":456,
			"byteOffset":21076,
			"target":34962
		},
		{
			"buffer":0,
			"byteLength":456,
			"byteOffset":21532,
			"target":34962
		},
		{
			"buffer":0,
			"byteLength":304,
			"byteOffset":21988,
			"target":34962
		},
		{
			"buffer":0,
			"byteLength":168,
			"byteOffset":22292,
			"target":34963
		},
		{
			"buffer":0,
			"byteLength":3120,
			"byteOffset":22460,
			"target":34962
		},
		{
			"buffer":0,
			"byteLength":3120,
			"byteOffset":25580,
			"target":34962
		},
		{
			"buffer":0,
			"byteLength":2080,
			"byteOffset":28700,
			"target":34962
		},
		{
			"buffer":0,
			"byteLength":1536,
			"byteOffset":30780,
			"target":34963
		},
		{
			"buffer":0,
			"byteLength":5568,
			"byteOffset":32316,
			"target":34962
		},
		{
			"buffer":0,
			"byteLength":5568,
			"byteOffset":37884,
			"target":34962
		},
		{
			"buffer":0,
			"byteLength":3712,
			"byteOffset":43452,
			"target":34962
		},
		{
			"buffer":0,
			"byteLength":2520,
			"byteOffset":47164,
			"target":34963
		},
		{
			"buffer":0,
			"byteLength":14040,
			"byteOffset":49684,
			"target":34962
		},
		{
			"buffer":0,
			"byteLength":14040,
			"byteOffset":63724,
			"target":34962
		},
		{
			"buffer":0,
			"byteLength":9360,
			"byteOffset":77764,
			"target":34962
		},
		{
			"buffer":0,
			"byteLength":6912,
			"byteOffset":87124,
			"target":34963
		},
		{
			"buffer":0,
			"byteLength":20436,
			"byteOffset":94036,
			"target":34962
		},
		{
			"buffer":0,
			"byteLength":20436,
			"byteOffset":114472,
			"target":34962
		},
		{
			"buffer":0,
			"byteLength":13624,
			"byteOffset":134908,
			"target":34962
		},
		{
			"buffer":0,
			"byteLength":13624,
			"byteOffset":148532,
			"target":34962
		},
		{
			"buffer":0,
			"byteLength":9960,
			"byteOffset":162156,
			"target":34963
		},
		{
			"buffer":0,
			"byteLength":3096,
			"byteOffset":172116,
			"target":34962
		},
		{
			"buffer":0,
			"byteLength":3096,
			"byteOffset":175212,
			"target":34962
		},
		{
			"buffer":0,
			"byteLength":2064,
			"byteOffset":178308,
			"target":34962
		},
		{
			"buffer":0,
			"byteLength":2064,
			"byteOffset":180372,
			"target":34962
		},
		{
			"buffer":0,
			"byteLength":2280,
			"byteOffset":182436,
			"target":34963
		}
	],
	"buffers":[
		{
			"byteLength":184716,
			"uri":"lens.bin"
		}
	]
}
