{
	"asset":{
		"generator":"Khronos glTF Blender I/O v4.0.43",
		"version":"2.0"
	},
	"extensionsUsed":[
		"KHR_materials_specular",
		"KHR_materials_ior"
	],
	"scene":0,
	"scenes":[
		{
			"name":"Scene",
			"nodes":[
				0,
				1,
				2,
				3
			]
		}
	],
	"nodes":[
		{
			"mesh":0,
			"name":"rail",
			"translation":[
				0.031725216656923294,
				0.14563550055027008,
				-0.01466725580394268
			]
		},
		{
			"mesh":1,
			"name":"slide holder",
			"translation":[
				-0.004162479192018509,
				0.15031790733337402,
				0.03486059233546257
			]
		},
		{
			"mesh":2,
			"name":"slideholder2",
			"translation":[
				-0.048386100679636,
				0.1510116159915924,
				0.021001460030674934
			]
		},
		{
			"mesh":3,
			"name":"Cylinder.001",
			"translation":[
				-0.05216147378087044,
				0.15575969219207764,
				-0.007256210781633854
			]
		}
	],
	"materials":[
		{
			"doubleSided":true,
			"name":"black plastic",
			"pbrMetallicRoughness":{
				"baseColorFactor":[
					0.0056046294048428535,
					0.0056046294048428535,
					0.0056046294048428535,
					1
				],
				"metallicFactor":0,
				"roughnessFactor":0.6166667342185974
			}
		},
		{
			"doubleSided":true,
			"extensions":{
				"KHR_materials_specular":{
					"specularFactor":0.800000011920929
				},
				"KHR_materials_ior":{
					"ior":1.4500000476837158
				}
			},
			"name":"metal.004",
			"pbrMetallicRoughness":{
				"baseColorFactor":[
					0.5925782918930054,
					0.5925782918930054,
					0.5925782918930054,
					1
				],
				"roughnessFactor":0.4833333194255829
			}
		},
		{
			"doubleSided":true,
			"extensions":{
				"KHR_materials_specular":{
					"specularFactor":0.800000011920929
				},
				"KHR_materials_ior":{
					"ior":1.4500000476837158
				}
			},
			"name":"metal.003",
			"pbrMetallicRoughness":{
				"baseColorFactor":[
					0.5925782918930054,
					0.5925782918930054,
					0.5925782918930054,
					1
				],
				"roughnessFactor":0.4833333194255829
			}
		},
		{
			"doubleSided":true,
			"extensions":{
				"KHR_materials_specular":{
					"specularFactor":0.800000011920929
				},
				"KHR_materials_ior":{
					"ior":1.4500000476837158
				}
			},
			"name":"metal.002",
			"pbrMetallicRoughness":{
				"baseColorFactor":[
					0.5925782918930054,
					0.5925782918930054,
					0.5925782918930054,
					1
				],
				"roughnessFactor":0.4833333194255829
			}
		}
	],
	"meshes":[
		{
			"name":"Cube.008",
			"primitives":[
				{
					"attributes":{
						"POSITION":0,
						"NORMAL":1,
						"TEXCOORD_0":2
					},
					"indices":3,
					"material":0
				}
			]
		},
		{
			"name":"Plane",
			"primitives":[
				{
					"attributes":{
						"POSITION":4,
						"NORMAL":5,
						"TEXCOORD_0":6
					},
					"indices":7,
					"material":1
				}
			]
		},
		{
			"name":"Plane.001",
			"primitives":[
				{
					"attributes":{
						"POSITION":8,
						"NORMAL":9,
						"TEXCOORD_0":10
					},
					"indices":11,
					"material":2
				}
			]
		},
		{
			"name":"Cylinder.004",
			"primitives":[
				{
					"attributes":{
						"POSITION":12,
						"NORMAL":13,
						"TEXCOORD_0":14
					},
					"indices":15,
					"material":3
				}
			]
		}
	],
	"accessors":[
		{
			"bufferView":0,
			"componentType":5126,
			"count":96,
			"max":[
				0.07000000029802322,
				0.005001239478588104,
				0.007278012577444315
			],
			"min":[
				-0.07000000029802322,
				-0.00500122457742691,
				-0.007278005592525005
			],
			"type":"VEC3"
		},
		{
			"bufferView":1,
			"componentType":5126,
			"count":96,
			"type":"VEC3"
		},
		{
			"bufferView":2,
			"componentType":5126,
			"count":96,
			"type":"VEC2"
		},
		{
			"bufferView":3,
			"componentType":5123,
			"count":180,
			"type":"SCALAR"
		},
		{
			"bufferView":4,
			"componentType":5126,
			"count":1082,
			"max":[
				0.057500001043081284,
				0.002065082546323538,
				-0.018354244530200958
			],
			"min":[
				-0.031026393175125122,
				-7.723679300397635e-05,
				-0.05750000476837158
			],
			"type":"VEC3"
		},
		{
			"bufferView":5,
			"componentType":5126,
			"count":1082,
			"type":"VEC3"
		},
		{
			"bufferView":6,
			"componentType":5126,
			"count":1082,
			"type":"VEC2"
		},
		{
			"bufferView":7,
			"componentType":5123,
			"count":4824,
			"type":"SCALAR"
		},
		{
			"bufferView":8,
			"componentType":5126,
			"count":612,
			"max":[
				0.03133883699774742,
				0.002832712372764945,
				0.028710534796118736
			],
			"min":[
				-0.02539840340614319,
				-0.000424471334554255,
				-0.04037872701883316
			],
			"type":"VEC3"
		},
		{
			"bufferView":9,
			"componentType":5126,
			"count":612,
			"type":"VEC3"
		},
		{
			"bufferView":10,
			"componentType":5126,
			"count":612,
			"type":"VEC2"
		},
		{
			"bufferView":11,
			"componentType":5123,
			"count":2424,
			"type":"SCALAR"
		},
		{
			"bufferView":12,
			"componentType":5126,
			"count":560,
			"max":[
				0.008378013037145138,
				0.0027926694601774216,
				0.008378012105822563
			],
			"min":[
				-0.008378011174499989,
				-0.0027926715556532145,
				-0.008378012105822563
			],
			"type":"VEC3"
		},
		{
			"bufferView":13,
			"componentType":5126,
			"count":560,
			"type":"VEC3"
		},
		{
			"bufferView":14,
			"componentType":5126,
			"count":560,
			"type":"VEC2"
		},
		{
			"bufferView":15,
			"componentType":5123,
			"count":2394,
			"type":"SCALAR"
		}
	],
	"bufferViews":[
		{
			"buffer":0,
			"byteLength":1152,
			"byteOffset":0,
			"target":34962
		},
		{
			"buffer":0,
			"byteLength":1152,
			"byteOffset":1152,
			"target":34962
		},
		{
			"buffer":0,
			"byteLength":768,
			"byteOffset":2304,
			"target":34962
		},
		{
			"buffer":0,
			"byteLength":360,
			"byteOffset":3072,
			"target":34963
		},
		{
			"buffer":0,
			"byteLength":12984,
			"byteOffset":3432,
			"target":34962
		},
		{
			"buffer":0,
			"byteLength":12984,
			"byteOffset":16416,
			"target":34962
		},
		{
			"buffer":0,
			"byteLength":8656,
			"byteOffset":29400,
			"target":34962
		},
		{
			"buffer":0,
			"byteLength":9648,
			"byteOffset":38056,
			"target":34963
		},
		{
			"buffer":0,
			"byteLength":7344,
			"byteOffset":47704,
			"target":34962
		},
		{
			"buffer":0,
			"byteLength":7344,
			"byteOffset":55048,
			"target":34962
		},
		{
			"buffer":0,
			"byteLength":4896,
			"byteOffset":62392,
			"target":34962
		},
		{
			"buffer":0,
			"byteLength":4848,
			"byteOffset":67288,
			"target":34963
		},
		{
			"buffer":0,
			"byteLength":6720,
			"byteOffset":72136,
			"target":34962
		},
		{
			"buffer":0,
			"byteLength":6720,
			"byteOffset":78856,
			"target":34962
		},
		{
			"buffer":0,
			"byteLength":4480,
			"byteOffset":85576,
			"target":34962
		},
		{
			"buffer":0,
			"byteLength":4788,
			"byteOffset":90056,
			"target":34963
		}
	],
	"buffers":[
		{
			"byteLength":94844,
			"uri":"slideholder.bin"
		}
	]
}
