{
	"asset":{
		"generator":"Khronos glTF Blender I/O v4.0.43",
		"version":"2.0"
	},
	"scene":0,
	"scenes":[
		{
			"name":"Scene",
			"nodes":[
				0,
				1
			]
		}
	],
	"nodes":[
		{
			"mesh":0,
			"name":"base1",
			"translation":[
				0,
				0.01669890061020851,
				0
			]
		},
		{
			"mesh":1,
			"name":"base3",
			"translation":[
				0,
				0.0872240737080574,
				-0.023662367835640907
			]
		}
	],
	"materials":[
		{
			"doubleSided":true,
			"name":"Material.006",
			"pbrMetallicRoughness":{
				"metallicFactor":0,
				"roughnessFactor":0.8257575631141663
			}
		},
		{
			"doubleSided":true,
			"name":"Material",
			"pbrMetallicRoughness":{
				"baseColorFactor":[
					0.8000000715255737,
					0.7875087857246399,
					0.7507203817367554,
					1
				],
				"metallicFactor":0,
				"roughnessFactor":0.8257575631141663
			}
		}
	],
	"meshes":[
		{
			"name":"Cube",
			"primitives":[
				{
					"attributes":{
						"POSITION":0,
						"NORMAL":1,
						"TEXCOORD_0":2,
						"TEXCOORD_1":3
					},
					"indices":4,
					"material":0
				}
			]
		},
		{
			"name":"Cube.002",
			"primitives":[
				{
					"attributes":{
						"POSITION":5,
						"NORMAL":6,
						"TEXCOORD_0":7
					},
					"indices":8,
					"material":1
				}
			]
		}
	],
	"accessors":[
		{
			"bufferView":0,
			"componentType":5126,
			"count":228,
			"max":[
				0.06495427340269089,
				0.01823599264025688,
				0.08862750977277756
			],
			"min":[
				-0.06495427340269089,
				-0.017475713044404984,
				-0.08353542536497116
			],
			"type":"VEC3"
		},
		{
			"bufferView":1,
			"componentType":5126,
			"count":228,
			"type":"VEC3"
		},
		{
			"bufferView":2,
			"componentType":5126,
			"count":228,
			"type":"VEC2"
		},
		{
			"bufferView":3,
			"componentType":5126,
			"count":228,
			"type":"VEC2"
		},
		{
			"bufferView":4,
			"componentType":5123,
			"count":588,
			"type":"SCALAR"
		},
		{
			"bufferView":5,
			"componentType":5126,
			"count":329,
			"max":[
				0.03253453969955444,
				0.04722046107053757,
				0.03552424535155296
			],
			"min":[
				-0.03253453969955444,
				-0.0465247668325901,
				-0.017477385699748993
			],
			"type":"VEC3"
		},
		{
			"bufferView":6,
			"componentType":5126,
			"count":329,
			"type":"VEC3"
		},
		{
			"bufferView":7,
			"componentType":5126,
			"count":329,
			"type":"VEC2"
		},
		{
			"bufferView":8,
			"componentType":5123,
			"count":909,
			"type":"SCALAR"
		}
	],
	"bufferViews":[
		{
			"buffer":0,
			"byteLength":2736,
			"byteOffset":0,
			"target":34962
		},
		{
			"buffer":0,
			"byteLength":2736,
			"byteOffset":2736,
			"target":34962
		},
		{
			"buffer":0,
			"byteLength":1824,
			"byteOffset":5472,
			"target":34962
		},
		{
			"buffer":0,
			"byteLength":1824,
			"byteOffset":7296,
			"target":34962
		},
		{
			"buffer":0,
			"byteLength":1176,
			"byteOffset":9120,
			"target":34963
		},
		{
			"buffer":0,
			"byteLength":3948,
			"byteOffset":10296,
			"target":34962
		},
		{
			"buffer":0,
			"byteLength":3948,
			"byteOffset":14244,
			"target":34962
		},
		{
			"buffer":0,
			"byteLength":2632,
			"byteOffset":18192,
			"target":34962
		},
		{
			"buffer":0,
			"byteLength":1818,
			"byteOffset":20824,
			"target":34963
		}
	],
	"buffers":[
		{
			"byteLength":22644,
			"uri":"base.bin"
		}
	]
}
