{
	"asset":{
		"generator":"Khronos glTF Blender I/O v4.0.43",
		"version":"2.0"
	},
	"scene":0,
	"scenes":[
		{
			"name":"Scene",
			"nodes":[
				0,
				1
			]
		}
	],
	"nodes":[
		{
			"mesh":0,
			"name":"disk",
			"rotation":[
				-0.08126087486743927,
				0,
				0,
				0.996692955493927
			],
			"translation":[
				0,
				0.22425320744514465,
				0.03279659152030945
			]
		},
		{
			"mesh":1,
			"name":"disk2",
			"translation":[
				0,
				0.22526401281356812,
				0.01805155538022518
			]
		}
	],
	"materials":[
		{
			"doubleSided":true,
			"name":"black plastic",
			"pbrMetallicRoughness":{
				"baseColorFactor":[
					0.0056046294048428535,
					0.0056046294048428535,
					0.0056046294048428535,
					1
				],
				"metallicFactor":0,
				"roughnessFactor":0.6166667342185974
			}
		}
	],
	"meshes":[
		{
			"name":"Cylinder.015",
			"primitives":[
				{
					"attributes":{
						"POSITION":0,
						"NORMAL":1,
						"TEXCOORD_0":2
					},
					"indices":3,
					"material":0
				}
			]
		},
		{
			"name":"Cylinder.016",
			"primitives":[
				{
					"attributes":{
						"POSITION":4,
						"NORMAL":5,
						"TEXCOORD_0":6
					},
					"indices":7,
					"material":0
				}
			]
		}
	],
	"accessors":[
		{
			"bufferView":0,
			"componentType":5126,
			"count":834,
			"max":[
				0.031550001353025436,
				0.005000000353902578,
				0.031550001353025436
			],
			"min":[
				-0.031550001353025436,
				-0.011147791519761086,
				-0.031550001353025436
			],
			"type":"VEC3"
		},
		{
			"bufferView":1,
			"componentType":5126,
			"count":834,
			"type":"VEC3"
		},
		{
			"bufferView":2,
			"componentType":5126,
			"count":834,
			"type":"VEC2"
		},
		{
			"bufferView":3,
			"componentType":5123,
			"count":4212,
			"type":"SCALAR"
		},
		{
			"bufferView":4,
			"componentType":5126,
			"count":130,
			"max":[
				0.014998591504991055,
				0.003164248075336218,
				0.01499859243631363
			],
			"min":[
				-0.01499859243631363,
				-0.0031642718240618706,
				-0.01499859057366848
			],
			"type":"VEC3"
		},
		{
			"bufferView":5,
			"componentType":5126,
			"count":130,
			"type":"VEC3"
		},
		{
			"bufferView":6,
			"componentType":5126,
			"count":130,
			"type":"VEC2"
		},
		{
			"bufferView":7,
			"componentType":5123,
			"count":372,
			"type":"SCALAR"
		}
	],
	"bufferViews":[
		{
			"buffer":0,
			"byteLength":10008,
			"byteOffset":0,
			"target":34962
		},
		{
			"buffer":0,
			"byteLength":10008,
			"byteOffset":10008,
			"target":34962
		},
		{
			"buffer":0,
			"byteLength":6672,
			"byteOffset":20016,
			"target":34962
		},
		{
			"buffer":0,
			"byteLength":8424,
			"byteOffset":26688,
			"target":34963
		},
		{
			"buffer":0,
			"byteLength":1560,
			"byteOffset":35112,
			"target":34962
		},
		{
			"buffer":0,
			"byteLength":1560,
			"byteOffset":36672,
			"target":34962
		},
		{
			"buffer":0,
			"byteLength":1040,
			"byteOffset":38232,
			"target":34962
		},
		{
			"buffer":0,
			"byteLength":744,
			"byteOffset":39272,
			"target":34963
		}
	],
	"buffers":[
		{
			"byteLength":40016,
			"uri":"disk.bin"
		}
	]
}
